<svg width="827" height="759" viewBox="0 0 827 759" fill="none" xmlns="http://www.w3.org/2000/svg">
<path d="M799.162 59.1041C791.098 73.8252 784.682 84.5597 779.914 91.3073C772.109 102.351 764.265 113.361 756.381 124.337C753.098 128.914 749.628 133.244 745.973 137.326C739.046 145.03 735.548 148.921 735.481 149C713.871 174.05 688.331 199.034 660.244 217.134C646.479 225.996 632.253 234.24 617.565 241.864C616.887 242.218 616.367 242.814 616.108 243.536C615.849 244.258 615.869 245.052 616.165 245.761C621.226 257.716 624.752 270.272 626.742 283.43C629.531 301.84 630.138 321.087 628.564 341.173C628.058 347.639 627.518 354.483 626.945 361.703C625.983 373.781 622.525 386.18 617.936 396.925C617.071 398.95 615.935 400.783 614.529 402.425C614.419 402.554 614.347 402.711 614.321 402.879C614.295 403.047 614.317 403.218 614.384 403.374C614.45 403.53 614.559 403.665 614.698 403.762C614.837 403.86 615 403.917 615.17 403.926C633.096 404.86 650.758 407.609 668.156 412.175C676.742 414.419 683.321 414.571 691.57 413.609C693.64 413.373 694.967 413.941 695.551 415.313C695.889 416.134 695.81 417.32 695.315 418.872C694.607 421.031 693.926 423.112 693.274 425.114C693.208 425.321 693.187 425.54 693.212 425.756C693.237 425.972 693.308 426.18 693.42 426.367C693.531 426.553 693.681 426.714 693.86 426.838C694.038 426.963 694.241 427.048 694.455 427.088C701.664 428.46 708.456 430.563 714.833 433.397C719.168 435.32 719.269 439.976 716.503 443.096C714.664 445.188 711.29 446.301 708.642 447.584C708.442 447.682 708.267 447.824 708.13 447.999C707.993 448.173 707.897 448.377 707.85 448.593C707.803 448.809 707.806 449.032 707.858 449.246C707.91 449.46 708.011 449.659 708.153 449.827L712.927 455.63C713.055 455.786 713.142 455.971 713.18 456.169C713.218 456.367 713.205 456.571 713.143 456.763C713.08 456.955 712.971 457.128 712.824 457.266C712.677 457.404 712.498 457.503 712.302 457.553C710.368 458.059 708.479 458.785 706.634 459.729C701.742 462.26 697.019 463.812 691.553 465.229C690.103 465.611 688.905 466.258 687.96 467.169C680.268 474.625 672.266 481.44 663.955 487.614C650.618 497.533 635.3 505.484 618.004 511.467C611.189 513.829 603.918 515.195 596.816 516.494C595.871 516.666 595.022 517.182 594.434 517.941C593.845 518.701 593.558 519.652 593.628 520.61L596.715 563.947C596.835 565.583 597.521 567.127 598.655 568.316C601.084 570.869 603.227 573.484 605.082 576.16C617.07 593.524 625.224 612.052 629.542 631.744C634.997 656.71 630.774 679.545 616.874 700.25C616.471 700.849 616.298 701.575 616.388 702.294C616.478 703.012 616.824 703.676 617.363 704.163C629.171 714.875 638.061 726.177 641.756 741.731C642.622 745.341 641.992 748.461 639.866 751.093C638.534 752.746 638.264 754.146 638.483 756.086C638.518 756.411 638.469 756.738 638.339 757.038C638.21 757.337 638.006 757.598 637.746 757.795C637.486 757.992 637.18 758.118 636.857 758.162C636.534 758.205 636.205 758.164 635.902 758.043C630.588 755.918 626.489 753.826 620.619 756.947C620.005 757.273 619.288 757.351 618.619 757.162C617.949 756.973 617.379 756.534 617.025 755.935C616.497 755.046 615.755 754.591 614.799 754.568C614.169 754.557 613.612 754.748 613.129 755.142C609.384 758.077 605.285 758.471 600.831 756.323C581.651 747.028 564.697 737.935 545.905 722.348C543.127 720.031 540.22 718.204 537.184 716.866C526.579 712.198 515.586 708.037 504.205 704.382C479.013 696.285 453.462 695.228 427.551 701.211C413.303 704.506 398.581 707.891 383.388 711.366C382.161 711.648 381.085 712.376 380.368 713.407C375.308 720.644 369.943 727.122 362.47 732.267C354.778 737.553 348.373 741 343.256 742.608C333.326 745.712 323.767 748.72 314.579 751.633C312.802 752.195 310.345 751.858 307.207 750.621C304.44 749.541 301.438 748.765 298.621 750.25C294.684 752.308 291.597 751.74 289.359 748.546C289.033 748.085 288.589 747.849 288.027 747.837C284.012 747.685 277.77 749.491 278.125 743.536C278.608 735.562 281.498 728.275 286.795 721.673C292.868 714.116 299.065 707.363 305.385 701.414C305.726 701.095 305.944 700.666 306.003 700.201C306.061 699.736 305.956 699.264 305.706 698.866C299.138 688.497 294.369 677.218 291.401 665.027C291.153 664.003 290.501 663.514 289.444 663.559C276.691 664.043 263.887 664.031 251.033 663.525C250.801 663.517 250.574 663.462 250.365 663.362C250.155 663.262 249.968 663.12 249.815 662.945C249.662 662.77 249.546 662.565 249.474 662.343C249.402 662.121 249.375 661.886 249.396 661.653C251.061 644.57 252.793 627.487 254.592 610.404C254.772 608.684 254.828 606.969 254.761 605.259C254.753 605.047 254.701 604.838 254.609 604.647C254.516 604.456 254.385 604.286 254.223 604.148C254.061 604.01 253.872 603.907 253.669 603.845C253.465 603.784 253.251 603.766 253.04 603.792C247.383 604.478 241.732 605.124 236.087 605.732C214.877 608.003 193.655 610.191 172.422 612.294C170.263 612.496 168.02 612.536 165.692 612.412C165.138 612.38 164.616 612.145 164.224 611.754C163.833 611.362 163.598 610.84 163.566 610.286C161.992 579.967 160.985 550.007 160.547 520.408C160.541 520.154 160.475 519.906 160.354 519.683C160.233 519.461 160.06 519.271 159.85 519.129C159.641 518.986 159.4 518.897 159.148 518.867C158.897 518.837 158.641 518.868 158.404 518.957C154.727 520.363 151.359 521.813 148.3 523.309C133.387 530.585 118.492 537.901 103.613 545.256C100.071 547.01 96.4383 548.59 92.7158 549.996C90.1404 550.963 87.8912 550.401 85.9681 548.309C69.3577 530.282 57.9485 517.585 51.7407 510.219C43.5647 500.536 34.5791 489.88 24.7838 478.252C16.4673 468.366 8.52192 457.638 0.475335 447.28C0.288402 447.037 0.152123 446.759 0.0745596 446.462C-0.00300408 446.165 -0.0202622 445.856 0.023774 445.552C0.0678102 445.249 0.17224 444.957 0.330933 444.695C0.489625 444.432 0.699341 444.204 0.947669 444.024C2.36468 443.001 3.58487 442.326 4.60827 442C26.6731 434.915 48.9179 428.443 71.3426 422.583C82.7461 419.603 93.5986 416.657 103.9 413.744C137.436 404.264 171.523 395.272 206.161 386.77C215.416 384.487 227.562 382.21 242.598 379.938C243.385 379.826 243.818 379.37 243.897 378.572L244.808 369.344C244.843 368.993 244.963 368.656 245.156 368.361C245.349 368.066 245.611 367.823 245.918 367.652C246.225 367.481 246.569 367.387 246.919 367.379C247.269 367.372 247.616 367.45 247.929 367.607C251.842 369.553 255.469 372.162 258.809 375.434C259.973 376.564 261.745 377.509 263.364 377.796C286.61 381.901 308.928 387.198 330.318 393.687C332.646 394.395 333.236 393.675 332.089 391.527C330.38 388.311 329.092 384.723 328.226 380.765C324.616 364.25 322.592 348.191 325.915 332.367C327.501 324.81 329.165 317.213 330.908 309.577C331.459 307.137 333.107 299.534 335.851 286.77C339.236 271.037 343.234 255.422 347.845 239.924C348.947 236.224 347.569 234.223 343.712 233.919C333.995 233.154 324.408 231.602 314.95 229.263C287.476 222.482 262.296 213.597 239.41 202.61C233.185 199.624 226.758 196.301 220.803 192.573C189.19 172.791 166.001 157.406 151.235 146.419C136.829 135.701 125.993 127.031 118.728 120.407C114.533 116.583 106.886 108.638 95.786 96.5705L93.3062 92.6568C93.0742 92.2951 92.9274 91.8855 92.8769 91.4585C92.8264 91.0316 92.8735 90.5983 93.0146 90.1911C93.1558 89.7839 93.3873 89.4134 93.6919 89.1071C93.9966 88.8009 94.3664 88.5669 94.7738 88.4227C96.562 87.8041 98.6818 87.4611 101.133 87.3937C114.528 87.0113 127.466 87.4555 139.949 88.7263C145.269 89.2549 150.588 89.761 155.908 90.2445C179.457 93.7421 194.251 96.16 200.29 97.4983C211.48 99.9724 224.891 103.914 240.523 109.324C273.519 120.744 305.166 136.635 334.889 154.938C350.898 164.806 367.16 177.829 382.932 189.654C383.411 190.011 383.981 190.223 384.573 190.265C385.166 190.307 385.756 190.177 386.273 189.891C394.083 185.64 401.809 181.642 410.244 178.976C430.419 172.588 450.819 169.4 471.445 169.411C483.95 169.423 497.676 170.587 512.622 172.903C524.914 174.793 535.744 177.705 545.112 181.642C556.313 186.354 567.025 192.23 577.248 199.27C578.361 200.035 579.233 199.821 579.863 198.629C585.745 187.338 592.391 176.44 599.802 165.936C605.2 158.278 612.195 149.568 620.787 139.806C632.809 126.131 644.027 114.463 654.441 104.803C671.58 88.8782 686.481 76.305 699.144 67.0832C713 56.9842 727.085 47.5206 741.402 38.6925C760.767 26.7322 781.871 16.9987 802.434 7.33273C809.452 3.85769 816.908 1.42291 824.803 0.0283905C825.11 -0.0256961 825.425 -0.00225669 825.721 0.0966022C826.017 0.195461 826.283 0.36661 826.496 0.594496C826.709 0.822382 826.861 1.0998 826.94 1.40158C827.018 1.70336 827.02 2.01994 826.945 2.32259C826.102 5.66268 825.393 8.12556 823.335 11.3138C822.154 13.1582 821.024 15.3681 819.944 17.9434C814.456 31.1238 807.529 44.8441 799.162 59.1041ZM177.315 109.34C178.349 116.088 180.199 123.938 182.864 132.89C185.26 140.976 188.201 147.453 191.687 152.323C195.803 163.457 202.393 172.099 211.458 178.251C228.968 190.144 248.84 199.067 268.442 206.912C298.547 218.956 330.093 226.142 363.078 228.47C352.484 244.496 347.71 263.491 343.999 281.794C341.367 294.8 339.056 308.194 335.716 320.778C333.703 328.369 332.454 334.318 331.971 338.626C331.094 346.47 331.33 354.078 331.853 362.091C331.868 362.247 331.94 362.393 332.053 362.501C332.167 362.61 332.316 362.674 332.473 362.682C332.63 362.69 332.785 362.642 332.909 362.546C333.034 362.45 333.12 362.312 333.152 362.158C334.164 355.512 339.123 336.922 347.71 335.589C359.181 333.801 366.08 340.701 371.208 350.35C380.486 367.877 379.576 384.172 373.992 402.61C370.269 409.156 365.209 413.227 358.81 414.824C356.842 415.318 356.656 416.184 358.253 417.422L388.094 440.6C388.556 440.96 388.494 441.106 387.909 441.038C386.604 440.903 385.384 440.493 384.248 439.807C374.104 433.745 364.506 426.728 355.453 418.754L343.847 407.671C337.481 404.027 330.807 401.132 323.823 398.984C311.014 395.047 298.092 391.516 285.058 388.39C276.859 386.433 269.263 385.308 262.268 385.016C260.682 384.948 259.923 385.786 259.99 387.529C260.046 388.665 259.928 389.526 259.636 390.11C259.31 390.796 259.023 390.78 258.776 390.06L257.544 386.281C257.274 381.31 255.492 378.105 252.197 376.666C248.722 375.147 247.203 376.441 247.642 380.546L248.789 386.18C238.701 386.798 228.574 388.423 218.408 391.055C217.407 391.314 217.193 391.876 217.767 392.742C217.857 392.877 218.127 393.147 218.576 393.552C218.835 393.799 219.15 393.985 219.521 394.108C224.548 395.885 230.002 398.5 235.884 401.953L218.543 412.799C217.024 413.755 217.131 414.469 218.863 414.942C221.236 415.605 224.177 416.044 227.686 416.258C232.061 416.527 237.678 418.214 244.538 421.318C245.753 421.869 246.186 422.881 245.837 424.355C245.05 424.962 244.499 425.564 244.184 426.16C243.903 426.677 243.981 427.133 244.42 427.526C246.714 429.663 248.834 431.946 250.78 434.375C268.037 455.917 289.865 474.389 313.111 489.082C323.081 495.391 334.788 500.35 345.888 505.411C346.162 505.539 346.375 505.771 346.479 506.055C346.584 506.34 346.571 506.654 346.445 506.929C345.275 509.527 344.606 512.237 344.437 515.06L334.434 562.007C333.736 563.986 331.808 566.77 328.648 570.357C324.374 575.215 319.027 583.358 312.605 594.784C305.722 607.019 301.14 620.042 298.857 633.853C295.314 655.366 299.239 675.204 310.631 693.367C315.501 700.025 320.719 705.068 326.286 708.498C327.793 710.669 328.468 712.288 328.31 713.357C328.267 713.633 328.129 713.885 327.919 714.07C327.71 714.255 327.442 714.361 327.163 714.369C321.9 714.555 318.324 709.949 313.82 707.908C313.45 707.739 313.047 707.654 312.638 707.66C312.23 707.666 311.827 707.762 311.458 707.942C301.421 712.901 289.967 723.411 287.791 734.966C287.678 735.551 287.897 735.742 288.448 735.54C290.017 734.966 291.434 734.376 292.733 733.212C295.916 730.322 299.323 727.741 302.956 725.469C303.012 725.435 303.074 725.435 303.141 725.469C303.299 725.581 303.417 725.711 303.496 725.857C303.586 726.071 303.563 726.273 303.428 726.464C300.156 730.738 297.192 735.793 294.538 741.629C294.482 741.749 294.452 741.879 294.451 742.011C294.45 742.144 294.478 742.275 294.532 742.395C294.587 742.515 294.667 742.622 294.767 742.709C294.867 742.795 294.985 742.858 295.112 742.895C296.686 743.367 298.424 743.345 300.324 742.827C300.965 742.58 301.606 742.479 302.247 742.524C302.787 742.557 303.147 742.827 303.327 743.333C303.619 744.165 304.39 744.632 305.638 744.733C307.437 744.891 308.517 744.081 308.877 742.304L310.159 736.029C312.464 734.387 314.905 733.572 317.48 733.583C318.054 733.583 318.194 733.83 317.902 734.325C316.058 737.418 314.382 740.555 312.875 743.738C312.234 745.11 312.65 745.616 314.123 745.256C331.071 741.14 346.467 734.179 360.311 724.372C365.282 720.864 369.207 716.028 372.086 709.865C395.005 699.35 419.696 692.743 446.158 690.044C463.556 688.256 480.116 689.391 495.838 693.451C513.786 698.085 531.589 705.04 549.245 714.318C551.416 717.94 554.582 721.207 558.743 724.119C575.004 735.512 591.221 744.818 607.393 752.038C608.001 752.308 608.467 752.161 608.793 751.599C609.547 750.295 609.463 748.979 608.54 747.652C606.37 744.525 603.997 741.635 601.422 738.981C600.792 738.329 600.932 737.991 601.843 737.969C604.025 737.924 605.588 738.413 606.533 739.437C606.994 739.92 607.303 740.488 607.461 741.14C607.573 741.556 607.798 741.883 608.136 742.119C609.299 742.962 611.155 742.085 613.129 743.536C615.749 745.459 619.089 747.438 623.149 749.474C623.936 750.047 624.785 750.261 625.696 750.115C626.292 750.013 626.613 749.659 626.658 749.052C626.737 747.961 626.377 747.095 625.578 746.454C625.308 742.349 623.408 739.763 619.876 738.694C618.842 738.391 618.819 738.02 619.809 737.581C621.069 737.007 622.39 736.822 623.773 737.024C624.051 737.067 624.335 737.053 624.607 736.983C624.88 736.914 625.135 736.79 625.359 736.619C625.955 736.17 626.197 735.54 626.084 734.73C626.005 734.393 626.214 734.201 626.708 734.156C628.148 737.339 630.257 740.286 633.034 742.996L634.569 746.016C634.941 746.735 635.104 746.69 635.059 745.881C634.991 744.711 634.727 743.525 634.266 742.321C634.131 738.554 632.939 734.634 630.69 730.563C625.483 721.083 618.87 713.272 610.851 707.132C610.312 706.727 609.772 706.722 609.232 707.115C599.161 714.521 588.348 719.953 575.46 717.557C574.965 717.456 574.673 717.158 574.583 716.663L574.363 715.499C577.4 715.679 579.374 715.584 580.285 715.212C599.189 707.655 612.713 694.818 620.855 676.7C624.352 665.713 625.736 655.94 625.005 647.382C623.183 626.171 616.3 605.945 604.357 586.703C600.072 579.804 594.134 572.769 588.82 566.056L587.623 538.289C588.016 530.732 587.572 523.292 586.29 515.971C586.243 515.702 586.14 515.445 585.989 515.217C585.838 514.989 585.642 514.794 585.412 514.645C585.183 514.497 584.925 514.397 584.655 514.352C584.385 514.307 584.109 514.319 583.844 514.385C580.178 515.307 576.978 515.724 574.245 515.634C573.93 515.634 573.925 515.589 574.228 515.499C576.905 514.711 579.576 513.671 582.241 512.378C584.637 511.22 587.353 510.41 590.389 509.949C618.538 505.72 644.179 494.097 667.312 475.08C673.723 469.806 679.036 464.571 683.254 459.375C683.546 459.026 684.103 459.015 684.924 459.341C685.88 459.847 686.791 459.943 687.657 459.628C692.02 458.076 696.181 456.85 700.14 455.951C701.759 455.591 701.866 454.972 700.46 454.095L694.32 450.249C693.769 449.9 693.713 449.484 694.151 449.001C699.178 443.467 704.087 443.265 710.346 441.359C710.942 441.179 711.358 440.937 711.594 440.633C711.68 440.521 711.741 440.392 711.775 440.255C711.809 440.118 711.814 439.975 711.79 439.836C711.767 439.697 711.714 439.564 711.637 439.446C711.56 439.328 711.459 439.226 711.341 439.149C706.668 436.011 695.18 429.129 689.529 430.664C689.068 430.461 688.809 430.169 688.753 429.787C688.438 427.56 688.258 425.249 688.213 422.853C688.18 421.29 687.392 420.638 685.852 420.897C682.258 421.504 679.306 422.094 675.578 420.981C658.855 415.976 641.452 412.625 623.368 410.927C620.484 410.657 612.235 409.948 608.979 412.074C607.539 413.019 606.167 414.273 604.863 415.836L601.624 418.923C599.004 420.891 596.355 422.55 593.679 423.899C589.99 425.755 587.285 427.267 585.565 428.437C573.115 436.855 559.991 444.513 545.737 447.938C545.455 448.005 545.32 447.898 545.332 447.617L545.349 447.061C545.358 446.753 545.46 446.456 545.641 446.209C545.822 445.962 546.073 445.777 546.361 445.677C560.666 440.527 573.992 433.132 586.341 423.494C586.835 423.101 586.807 422.747 586.256 422.432C577.72 417.607 573.143 410.218 572.525 400.266C572.401 398.286 572.317 393.524 572.272 385.977C572.98 372.077 580.807 352.509 595.298 348.005C603.834 345.357 614.394 346.149 619.876 354.263C620.18 354.725 620.354 354.68 620.399 354.128C622.525 330.77 622.193 307.502 619.404 284.324C617.492 268.321 612.538 253.56 604.542 240.042C604.34 239.626 604.497 239.306 605.015 239.081C627.192 229.286 647.677 217.533 666.469 203.824C684.26 190.846 702.558 174.275 721.361 154.111C734.317 140.194 742.836 123.983 749.364 105.562C751.579 100.287 753.199 94.5237 754.222 88.2709C755.538 80.2524 756.764 72.2114 757.9 64.148C758.586 59.2334 758.777 53.0031 758.473 45.457C758.023 43.7363 758.276 42.5724 759.232 41.9651C763.838 39.013 771.075 35.8922 776.692 32.3159C790.66 23.4203 805.032 15.2443 819.809 7.78818C820.799 7.29335 821.479 6.64671 821.851 5.84824C821.901 5.7331 821.918 5.6059 821.898 5.4817C821.878 5.35749 821.824 5.24148 821.74 5.14741C821.657 5.05334 821.548 4.98515 821.427 4.95091C821.306 4.91666 821.178 4.91779 821.058 4.95418C816.773 6.33745 812.736 8.00749 808.946 9.96431C789.726 19.9059 770.956 30.196 752.637 40.8348C702.895 69.7148 659.125 106.681 621.327 151.733C612.814 161.877 605.043 172.274 598.014 182.924C592.363 191.493 587.032 202.661 581.415 212.293C580.594 213.687 580.02 213.597 579.694 212.023C578.395 205.798 562.96 198.207 557.359 195.356C515.001 173.764 465.389 171.216 419.623 184.104C413.865 185.713 408.354 187.731 403.091 190.16C396.501 193.186 390.293 196.104 384.468 198.916C383.939 199.174 383.461 199.101 383.034 198.696C375.274 191.611 366.873 184.774 357.831 178.183C322.237 152.222 283.033 131.321 241.265 117.303C228.231 112.928 215.146 109.054 202.011 105.68C177.854 99.4832 150.043 95.2153 118.576 92.8761C113.909 92.5275 109.287 92.415 104.71 92.5387C104.53 92.55 104.434 92.6456 104.423 92.8255V92.8424C104.412 92.9886 104.479 93.0729 104.625 93.0954C118.942 94.9173 133.258 96.9416 147.574 99.1683C160.586 101.193 169.886 102.958 175.476 104.465C176.938 104.859 177.551 106.484 177.315 109.34ZM334.181 365.465L333.641 364.942C333.562 364.874 333.528 364.891 333.54 364.992C333.81 370.357 334.614 374.979 335.952 378.859C338.516 386.247 342.891 394.969 349.076 405.023C350.797 407.8 352.889 410.095 355.351 411.905C355.801 412.231 356.307 412.349 356.87 412.26C367.126 410.573 372.221 398.933 373.756 389.807C376.207 375.367 374.116 361.495 367.48 348.191C363.87 340.971 358.118 337.608 350.223 338.103C346.512 338.339 344.049 339.807 341.957 342.776C337.369 349.287 335.125 356.698 335.227 365.009C335.227 365.133 335.191 365.254 335.123 365.358C335.056 365.463 334.96 365.544 334.847 365.593C334.735 365.642 334.612 365.656 334.493 365.633C334.374 365.61 334.265 365.551 334.181 365.465ZM576.624 378.015C575.162 387.113 575.1 396.346 576.438 405.714C576.832 408.391 577.99 410.944 579.913 413.373C584.569 419.26 594.387 413.036 598.166 409.071C603.429 403.572 609.198 396.487 612.184 389.604C614.996 383.115 617.678 374.849 620.231 364.807C621.119 361.264 619.803 357.733 616.283 354.213C605.712 345.958 595.787 346.959 586.509 357.216C581.786 362.434 578.491 369.367 576.624 378.015ZM258.168 594.682C258.922 594.48 259.726 594.424 260.581 594.514C261.154 594.57 261.492 594.885 261.593 595.458C261.896 597.145 261.986 598.855 261.863 600.587C260.479 618.884 258.989 637.103 257.392 655.243C257.325 656.007 257.674 656.384 258.438 656.373L289.073 655.9C289.343 655.889 289.483 655.749 289.494 655.479C289.91 638.317 292.497 621.426 297.254 604.804C298.249 601.379 298.857 596.302 299.127 592.962C300.274 578.938 301.067 564.852 301.505 550.705C301.449 549.535 300.319 549.018 298.114 549.153C261.261 551.402 232.747 553.364 212.571 555.04C213.954 514.475 215.023 473.849 215.776 433.16C215.877 427.83 215.298 422.004 214.039 415.684C213.465 412.794 213.589 407.688 214.41 400.367C214.477 399.782 214.376 399.225 214.106 398.697L212.234 395.07C211.683 393.99 210.811 393.563 209.619 393.788C202.601 395.137 196.112 396.583 190.152 398.123C130.334 413.553 70.4035 430.214 10.3607 448.106C9.71963 448.298 9.61842 448.646 10.057 449.152L89.5781 541.865C89.983 542.337 90.4722 542.456 91.0457 542.219C120.904 529.989 148.603 514.099 175.644 502.206C176.038 502.026 176.336 502.127 176.539 502.509L176.758 502.897C176.769 502.92 176.702 502.982 176.555 503.083L170.55 507.435C169.964 507.853 169.486 508.403 169.155 509.04C168.824 509.676 168.648 510.381 168.644 511.096C168.441 541.854 168.874 572.741 169.943 603.758C169.965 604.32 170.252 604.568 170.803 604.5L258.168 594.682ZM593.847 417.773C593.763 417.627 593.603 417.526 593.376 417.477C593.15 417.428 592.861 417.431 592.526 417.487C592.191 417.542 591.816 417.648 591.424 417.799C591.032 417.951 590.629 418.144 590.239 418.368C589.452 418.821 588.764 419.372 588.327 419.901C587.891 420.429 587.74 420.892 587.91 421.187C587.994 421.332 588.154 421.433 588.38 421.482C588.607 421.531 588.896 421.528 589.231 421.472C589.566 421.417 589.941 421.311 590.333 421.16C590.725 421.008 591.128 420.815 591.518 420.591C592.305 420.138 592.993 419.587 593.429 419.058C593.866 418.53 594.016 418.067 593.847 417.773ZM227.298 425.131C224.959 429.089 223.648 433.312 223.367 437.799C222.782 447.021 222.327 456.828 222.001 467.219C221.202 492.804 220.376 518.794 219.521 545.188C219.511 545.519 219.57 545.848 219.694 546.154C219.818 546.46 220.005 546.737 220.242 546.966C220.479 547.195 220.761 547.371 221.069 547.483C221.378 547.596 221.707 547.641 222.035 547.617C237.234 546.555 252.551 545.897 267.75 544.345C280.469 543.04 293.161 541.933 305.824 541.022C306.201 540.995 306.581 541.049 306.936 541.178C307.292 541.308 307.616 541.511 307.886 541.774C308.157 542.036 308.369 542.353 308.508 542.704C308.647 543.054 308.709 543.429 308.691 543.805L306.6 584.915C306.408 588.694 307.291 588.969 309.248 585.742C312.633 580.141 316.671 574.203 321.36 567.928C325.426 562.479 327.416 558.043 328.614 551.852C329.142 549.096 329.789 546.369 330.554 543.67C333.815 532.042 336.48 521.605 338.55 512.361C338.977 510.449 338.28 509.156 336.458 508.481C328.766 505.596 321.056 502.543 313.988 498.377C292.744 485.837 273.367 469.873 255.857 450.485C252.09 446.313 247.951 441.286 243.442 435.404C240.023 430.939 235.603 428.729 230.182 428.774C229.643 428.774 229.3 428.516 229.153 427.998C228.996 427.447 229.103 426.784 229.474 426.008L237.267 424.844C239.82 424.462 239.832 424.034 237.301 423.562C234.895 423.112 231.999 422.291 228.614 421.099C228.49 421.054 228.358 421.039 228.228 421.054C228.097 421.069 227.972 421.115 227.862 421.187C227.753 421.259 227.661 421.355 227.595 421.469C227.53 421.583 227.491 421.71 227.483 421.841L227.298 425.131Z" fill="#0A0708"/>
<path d="M758.473 45.457C739.198 56.5232 720.821 68.8601 703.345 82.4679C702.322 83.2664 700.337 85.2907 697.39 88.5408C695.287 90.8688 692.751 92.7187 689.782 94.0907C689.287 94.3269 688.899 94.6755 688.618 95.1366C688.438 95.4403 688.236 95.7271 688.011 95.997C687.707 96.3456 687.196 96.6493 686.476 96.9079C685.902 97.1103 685.503 97.4871 685.278 98.0381C684.414 100.188 682.819 101.875 680.842 102.728C680.077 103.065 679.374 103.599 678.733 104.33C677.811 105.387 677.153 106.096 676.759 106.456C674.51 108.536 672.283 110.752 670.079 113.102C667.83 115.531 665.553 117.719 663.247 119.664C654.981 126.637 647.834 133.885 641.806 141.409C639.748 143.984 637.657 146.284 635.531 148.308C633.136 150.591 631.083 152.958 629.374 155.41C626.461 159.594 623.503 163.417 620.501 166.881C612.055 176.665 604.784 185.977 598.689 194.816C594.944 200.237 591.182 206.355 587.403 213.17C586.621 214.575 585.331 215.628 583.798 216.114C582.265 216.6 580.604 216.483 579.154 215.785C568.763 210.775 557.478 204.229 548.25 200.248C521.237 188.575 492.824 183.835 463.01 186.028C449.785 187.006 439.725 188.417 432.832 190.262C423.643 192.713 412.802 195.862 400.308 199.708C399.374 199.99 398.508 200.372 397.71 200.856C397.238 201.148 396.726 201.345 396.175 201.446C393.183 201.997 390.226 202.683 387.302 203.504C386.267 203.796 385.261 203.931 384.282 203.909C382.888 203.886 381.898 203.633 381.313 203.15C360.109 185.37 341.704 174.54 315.692 159.189C296.72 147.999 271.338 136.877 239.545 125.822C238.881 125.597 238.094 125.231 237.183 124.725C235.159 123.612 232.747 123.46 230.722 122.465C228.799 121.52 226.865 120.789 224.919 120.272C223.03 119.766 221.169 119.141 219.336 118.399C213.544 116.082 207.117 114.204 200.054 112.765C199.998 112.754 199.942 112.754 199.886 112.765L199.464 112.866C199.295 112.911 199.126 112.894 198.958 112.816L195.314 111.162C194.965 110.994 194.729 111.095 194.606 111.466C194.549 111.635 194.544 111.82 194.589 112.023C194.589 111.865 194.555 111.708 194.487 111.55C194.431 111.404 194.319 111.325 194.15 111.314C192.486 111.202 190.872 110.887 189.309 110.369C185.485 109.121 181.487 108.778 177.315 109.34C177.551 106.484 176.938 104.859 175.476 104.465C169.887 102.958 160.586 101.193 147.574 99.1684C133.258 96.9416 118.942 94.9173 104.626 93.0955C104.479 93.073 104.412 92.9886 104.423 92.8424V92.8256C104.434 92.6456 104.53 92.55 104.71 92.5388C109.287 92.4151 113.909 92.5275 118.576 92.8762C150.043 95.2154 177.854 99.4832 202.011 105.68C215.147 109.054 228.231 112.928 241.266 117.303C283.034 131.321 322.237 152.222 357.831 178.183C366.873 184.774 375.274 191.611 383.034 198.696C383.461 199.101 383.939 199.174 384.468 198.916C390.293 196.104 396.501 193.186 403.091 190.161C408.354 187.731 413.865 185.713 419.623 184.104C465.389 171.216 515.001 173.764 557.359 195.356C562.96 198.207 578.395 205.798 579.694 212.023C580.02 213.597 580.594 213.687 581.415 212.293C587.032 202.661 592.363 191.493 598.014 182.924C605.043 172.274 612.814 161.877 621.327 151.733C659.125 106.681 702.895 69.7148 752.637 40.8349C770.957 30.1961 789.726 19.9059 808.946 9.96436C812.736 8.00753 816.773 6.33749 821.058 4.95422C821.178 4.91783 821.307 4.9167 821.428 4.95095C821.549 4.9852 821.657 5.05338 821.741 5.14745C821.824 5.24152 821.879 5.35754 821.898 5.48174C821.918 5.60594 821.901 5.73314 821.851 5.84828C821.48 6.64675 820.799 7.29339 819.81 7.78822C805.032 15.2444 790.66 23.4203 776.692 32.316C771.075 35.8922 763.838 39.013 759.232 41.9651C758.277 42.5724 758.024 43.7364 758.473 45.457Z" fill="#F7F2CD"/>
<path d="M758.473 45.4569C758.777 53.003 758.586 59.2334 757.9 64.1479C756.764 72.2114 755.538 80.2523 754.222 88.2708C753.199 94.5236 751.579 100.287 749.364 105.562C746.181 109.813 743.049 113.974 739.968 118.045C736.673 122.375 733.35 126.361 729.998 130.005C714.85 146.492 698.835 162.09 681.955 176.8C677.501 180.691 673.025 184.307 668.527 187.647C663.736 191.223 659.165 194.715 654.812 198.123C639.203 210.37 623.053 222.335 606.364 234.02C605.037 234.942 603.721 236.044 602.417 237.326C602.001 237.743 601.967 238.187 602.316 238.659C602.788 239.278 603.53 239.739 604.542 240.042C612.538 253.56 617.492 268.321 619.404 284.324C622.193 307.502 622.525 330.77 620.399 354.128C620.354 354.679 620.18 354.724 619.876 354.263C614.394 346.149 603.834 345.356 595.298 348.005C580.807 352.509 572.98 372.077 572.272 385.977C571.125 388.429 570.304 390.987 569.809 393.653C569.494 395.272 568.977 396.599 568.257 397.634C567.245 399.085 566.3 400.209 565.423 401.008C540.951 423.253 512.341 435.809 479.593 438.677C471.175 439.419 461.678 438.677 453.918 436.737C441.963 433.756 428.305 429.292 412.943 423.342C402.225 419.204 389.242 412.293 373.992 402.61C379.576 384.172 380.486 367.877 371.208 350.35C366.08 340.701 359.181 333.801 347.71 335.589C339.123 336.922 334.164 355.512 333.152 362.158C333.12 362.312 333.034 362.45 332.909 362.546C332.785 362.642 332.63 362.69 332.473 362.682C332.316 362.674 332.167 362.61 332.053 362.501C331.94 362.393 331.868 362.247 331.853 362.091C331.33 354.078 331.094 346.47 331.971 338.626C332.454 334.318 333.703 328.369 335.716 320.778C339.056 308.194 341.367 294.8 343.999 281.794C347.71 263.491 352.484 244.496 363.078 228.47C364.348 228.481 366.08 227.295 368.273 224.911C368.481 224.683 368.624 224.404 368.686 224.102C368.747 223.8 368.726 223.487 368.624 223.196C368.522 222.905 368.343 222.647 368.106 222.45C367.869 222.253 367.583 222.124 367.278 222.077C357.325 220.592 347.564 218.596 337.993 216.088C335.305 215.38 332.572 214.772 329.795 214.266C326.882 213.715 323.969 213.018 321.056 212.175C312.892 209.813 304.789 207.401 296.748 204.938C291.08 203.206 283.05 200.113 272.659 195.66C259.231 189.89 245.792 184.155 232.342 178.453C217.812 172.313 204.26 163.603 191.687 152.323C188.201 147.453 185.26 140.976 182.864 132.89C180.199 123.938 178.349 116.088 177.315 109.34C181.487 108.778 185.485 109.121 189.309 110.369C190.872 110.887 192.486 111.202 194.15 111.314C194.319 111.325 194.431 111.404 194.487 111.55C194.555 111.708 194.589 111.865 194.589 112.023C194.544 111.82 194.549 111.635 194.605 111.466C194.729 111.095 194.965 110.993 195.314 111.162L198.958 112.815C199.126 112.894 199.295 112.911 199.464 112.866L199.885 112.765C199.942 112.754 199.998 112.754 200.054 112.765C207.117 114.204 213.544 116.082 219.336 118.399C221.169 119.141 223.03 119.765 224.919 120.272C226.865 120.789 228.799 121.52 230.722 122.465C232.747 123.46 235.159 123.612 237.183 124.725C238.094 125.231 238.881 125.597 239.545 125.821C271.338 136.876 296.72 147.999 315.692 159.189C341.704 174.54 360.109 185.37 381.313 203.15C381.898 203.633 382.887 203.886 384.282 203.909C385.26 203.931 386.267 203.796 387.302 203.504C390.226 202.683 393.183 201.997 396.175 201.446C396.726 201.345 397.238 201.148 397.71 200.855C398.508 200.372 399.374 199.989 400.308 199.708C412.802 195.862 423.643 192.713 432.831 190.262C439.725 188.417 449.785 187.006 463.01 186.027C492.824 183.834 521.237 188.575 548.25 200.248C557.477 204.229 568.763 210.774 579.154 215.785C580.603 216.482 582.264 216.6 583.798 216.114C585.331 215.628 586.621 214.575 587.403 213.17C591.182 206.355 594.944 200.237 598.689 194.816C604.784 185.977 612.055 176.665 620.501 166.881C623.503 163.417 626.461 159.594 629.374 155.41C631.083 152.958 633.136 150.591 635.531 148.308C637.657 146.284 639.748 143.984 641.806 141.409C647.834 133.885 654.981 126.637 663.247 119.664C665.552 117.719 667.83 115.531 670.079 113.102C672.283 110.752 674.51 108.536 676.759 106.456C677.153 106.096 677.811 105.387 678.733 104.33C679.374 103.599 680.077 103.065 680.842 102.728C682.819 101.875 684.414 100.188 685.278 98.038C685.503 97.4869 685.902 97.1102 686.476 96.9078C687.195 96.6491 687.707 96.3455 688.011 95.9968C688.236 95.7269 688.438 95.4401 688.618 95.1365C688.899 94.6754 689.287 94.3268 689.782 94.0906C692.751 92.7186 695.287 90.8686 697.39 88.5407C700.337 85.2906 702.321 83.2663 703.345 82.4678C720.821 68.86 739.198 56.523 758.473 45.4569ZM384.535 265.414C369.167 271.655 363.617 290.262 364.393 305.444C365.321 323.663 379.407 334.459 397.474 332.215C406.279 331.119 416.215 324.439 420.5 317.269C424.616 310.404 422.44 303.825 421.023 296.453C420.977 296.211 420.991 295.961 421.063 295.726C421.136 295.491 421.266 295.277 421.441 295.104C421.616 294.93 421.831 294.803 422.067 294.732C422.303 294.661 422.553 294.65 422.794 294.698C425.763 295.295 428.496 294.749 430.993 293.062C431.116 292.983 431.178 292.877 431.178 292.742C431.189 292.573 431.201 292.421 431.212 292.286L431.516 291.713C431.729 291.285 431.634 290.953 431.229 290.717C424.852 286.759 419.235 282.131 414.377 276.834C410.89 273.022 405.323 268.877 397.676 264.401C397.282 264.165 396.956 263.862 396.698 263.491C396.417 263.052 396.023 262.771 395.517 262.647C394.628 262.411 394.1 262.248 393.931 262.158C391.592 261 389.095 260.426 386.441 260.437C385.879 260.437 385.418 260.657 385.058 261.095C383.27 263.344 383.096 264.784 384.535 265.414ZM532.039 298.241L531.533 298.595C531.162 298.843 531.06 299.174 531.229 299.59C531.42 300.052 531.42 300.355 531.229 300.501C531.24 305.348 531.522 308.649 532.073 310.404C532.815 312.765 534.142 313.811 536.054 313.541C535.042 321.447 537.814 329.145 544.37 336.635C549.341 342.303 555.307 345.48 562.268 346.166C578.969 347.819 589.394 336.315 591.3 320.053C592.481 309.898 590.277 300.254 584.687 291.122L585.379 289.705C585.638 289.188 585.542 288.738 585.092 288.356C584.339 287.715 583.85 286.888 583.625 285.876C583.512 285.325 583.231 284.869 582.781 284.509C578.047 280.686 572.693 278.588 566.722 278.217C565.204 278.116 563.567 278.375 561.813 278.993C560.25 279.533 558.653 280.084 557.022 280.646C556.145 280.95 555.15 281.462 554.036 282.182C553.114 282.8 552.091 283.334 550.966 283.784C548.953 284.594 547.44 285.297 546.428 285.893C540.912 289.132 534.266 291.426 532.039 298.241ZM472.086 331.726C472.772 332.828 473.733 333.61 474.971 334.071C474.476 334.858 474.262 335.302 474.329 335.404C474.56 335.788 474.876 336.115 475.258 336.368C475.641 336.621 476.083 336.793 476.559 336.877C477.036 336.96 477.537 336.951 478.034 336.852C478.531 336.753 479.015 336.564 479.458 336.298C480.099 335.904 480.779 335.662 481.499 335.572C481.994 335.516 482.37 335.274 482.629 334.847C483.124 334.049 483.9 333.689 484.957 333.767C485.497 333.801 486.003 333.689 486.475 333.43C487.386 332.924 488.325 332.806 489.292 333.076C491.317 333.627 493.493 334.15 495.821 334.645C495.988 334.679 496.161 334.677 496.327 334.637C496.493 334.598 496.648 334.522 496.782 334.416C496.915 334.31 497.024 334.175 497.1 334.022C497.176 333.87 497.217 333.702 497.221 333.531C497.255 332.632 496.917 332.052 496.209 331.794C493.29 330.697 490.49 329.972 487.69 328.589C483.608 326.576 479.969 325.434 476.776 325.164C474.099 324.939 471.67 326.024 469.488 328.42C469.287 328.641 469.136 328.903 469.047 329.188C468.958 329.473 468.933 329.774 468.973 330.07C469.014 330.366 469.118 330.65 469.28 330.901C469.442 331.152 469.657 331.365 469.91 331.524C470.427 331.85 471.152 331.917 472.086 331.726ZM456.836 361.112C446.546 365.228 433.945 368.956 427.045 358.379C426.979 358.281 426.886 358.204 426.777 358.158C426.667 358.112 426.547 358.099 426.431 358.12C426.314 358.142 426.206 358.197 426.121 358.279C426.035 358.361 425.975 358.466 425.949 358.582C424.667 364.064 434.485 367.539 438.246 368.771C440.49 369.513 441.401 370.761 441.806 372.904C444.707 387.799 448.756 399.996 459.063 411.349C463.314 416.038 471.664 423.596 478.159 419.243C488.533 412.31 501.354 397.077 504.542 384.56C505.504 380.849 507.241 377.003 508.911 373.545C509.158 373.024 509.535 372.577 510.005 372.246C510.475 371.915 511.022 371.711 511.593 371.655C515.709 371.234 525.915 369.412 525.764 363.828C525.719 361.894 525.1 361.691 523.908 363.221C519.741 368.552 509.046 371.47 502.703 368.956C497.215 366.786 493.043 364.632 490.186 362.495C486.61 359.83 483.191 357.362 479.93 355.09C479.102 354.513 478.147 354.145 477.148 354.018C476.149 353.892 475.135 354.011 474.195 354.365C468.257 356.603 462.47 358.852 456.836 361.112Z" fill="#FACE1E"/>
<path d="M749.364 105.562C742.836 123.983 734.317 140.194 721.362 154.111C702.558 174.275 684.261 190.846 666.469 203.824C647.677 217.533 627.192 229.286 605.015 239.081C604.498 239.306 604.34 239.626 604.543 240.042C603.531 239.739 602.788 239.278 602.316 238.659C601.967 238.187 602.001 237.743 602.417 237.327C603.722 236.044 605.037 234.942 606.365 234.02C623.054 222.336 639.203 210.37 654.813 198.123C659.165 194.715 663.737 191.223 668.527 187.647C673.026 184.307 677.502 180.691 681.955 176.8C698.836 162.09 714.85 146.492 729.999 130.005C733.35 126.361 736.673 122.375 739.968 118.045C743.05 113.974 746.182 109.813 749.364 105.562Z" fill="#D18C2C"/>
<path d="M191.687 152.323C204.26 163.603 217.812 172.313 232.342 178.453C245.792 184.155 259.231 189.89 272.659 195.66C283.05 200.113 291.08 203.206 296.748 204.938C304.789 207.401 312.892 209.813 321.057 212.175C323.969 213.018 326.882 213.715 329.795 214.266C332.573 214.772 335.305 215.38 337.993 216.088C347.564 218.596 357.325 220.592 367.278 222.077C367.583 222.124 367.869 222.253 368.106 222.45C368.343 222.647 368.522 222.905 368.624 223.196C368.726 223.487 368.748 223.8 368.686 224.102C368.624 224.404 368.481 224.683 368.273 224.911C366.08 227.295 364.348 228.481 363.078 228.47C330.093 226.142 298.548 218.956 268.442 206.911C248.84 199.067 228.968 190.144 211.458 178.251C202.393 172.099 195.803 163.457 191.687 152.323Z" fill="#D18C2C"/>
<path d="M431.212 292.286C426.556 295.694 416.08 288.423 412.504 285.454C406.589 280.54 400.645 275.676 394.673 270.862C391.21 268.062 387.83 266.246 384.535 265.414C383.096 264.784 383.27 263.344 385.058 261.095C385.418 260.657 385.879 260.437 386.441 260.437C389.095 260.426 391.592 261 393.931 262.158C394.1 262.248 394.628 262.411 395.517 262.647C396.023 262.771 396.417 263.052 396.698 263.491C396.956 263.862 397.283 264.165 397.676 264.402C405.324 268.877 410.89 273.022 414.377 276.834C419.235 282.131 424.852 286.759 431.229 290.717C431.634 290.954 431.729 291.285 431.516 291.713L431.212 292.286Z" fill="#F7F2CD"/>
<path d="M384.535 265.414C387.83 266.246 391.21 268.062 394.673 270.862C400.645 275.676 406.589 280.54 412.504 285.454C416.08 288.423 426.556 295.694 431.212 292.286C431.201 292.421 431.19 292.573 431.178 292.742C431.178 292.877 431.116 292.983 430.993 293.062C428.496 294.749 425.763 295.295 422.794 294.698C422.553 294.65 422.303 294.661 422.067 294.732C421.831 294.803 421.616 294.93 421.441 295.104C421.266 295.277 421.136 295.491 421.063 295.726C420.991 295.961 420.977 296.211 421.023 296.453C422.44 303.825 424.616 310.404 420.5 317.269C416.215 324.439 406.279 331.119 397.474 332.215C379.407 334.459 365.321 323.663 364.393 305.444C363.617 290.262 369.167 271.655 384.535 265.414ZM414.512 290.464L400.493 278.825C399.982 278.398 399.391 278.077 398.756 277.88C398.12 277.682 397.452 277.612 396.789 277.673C396.126 277.734 395.482 277.926 394.893 278.236C394.304 278.546 393.782 278.97 393.358 279.482L393.088 279.82C390.304 283.171 388.774 287.332 388.834 291.388C388.894 295.443 390.54 299.061 393.408 301.446L393.56 301.581C394.982 302.761 396.661 303.603 398.503 304.057C400.344 304.512 402.311 304.571 404.291 304.231C406.271 303.891 408.225 303.159 410.043 302.076C411.86 300.993 413.505 299.581 414.883 297.92L415.169 297.583C416.025 296.551 416.436 295.222 416.313 293.888C416.189 292.553 415.542 291.322 414.512 290.464ZM374.751 301.986C374.676 301.883 374.574 301.803 374.456 301.755C374.337 301.708 374.208 301.695 374.083 301.718C373.958 301.741 373.842 301.799 373.748 301.885C373.654 301.971 373.587 302.082 373.553 302.205C368.746 318.923 379.474 327.863 394.707 329.145C404.002 329.921 412.993 320.896 416.08 313.221C417.171 310.522 416.508 309.982 414.09 311.601C401.185 320.171 389.798 322.347 379.862 308.852C378.265 306.681 376.562 304.393 374.751 301.986Z" fill="#0A0708"/>
<path d="M584.688 291.122C582.056 287.175 578.845 284.639 575.055 283.514C572.165 282.66 568.398 283.036 563.753 284.645C555.397 287.546 547.266 291.392 539.36 296.183C537.358 297.386 534.918 298.072 532.039 298.241C534.266 291.426 540.912 289.132 546.428 285.893C547.44 285.297 548.953 284.594 550.966 283.784C552.091 283.334 553.114 282.8 554.036 282.182C555.15 281.462 556.145 280.95 557.022 280.647C558.653 280.084 560.25 279.533 561.813 278.993C563.567 278.375 565.204 278.116 566.722 278.217C572.694 278.589 578.047 280.686 582.781 284.51C583.231 284.869 583.512 285.325 583.625 285.876C583.85 286.888 584.339 287.715 585.092 288.356C585.542 288.738 585.638 289.188 585.379 289.705L584.688 291.122Z" fill="#F7F2CD"/>
<path d="M414.512 290.464C415.542 291.322 416.189 292.553 416.313 293.888C416.436 295.222 416.025 296.551 415.17 297.583L414.883 297.921C413.505 299.581 411.86 300.994 410.043 302.076C408.225 303.159 406.271 303.892 404.291 304.231C402.311 304.571 400.344 304.512 398.503 304.058C396.662 303.603 394.982 302.761 393.56 301.581L393.408 301.446C390.54 299.061 388.894 295.443 388.834 291.388C388.774 287.332 390.304 283.171 393.088 279.82L393.358 279.483C393.783 278.97 394.304 278.547 394.893 278.236C395.482 277.926 396.126 277.734 396.789 277.673C397.452 277.612 398.12 277.682 398.756 277.88C399.392 278.078 399.982 278.399 400.493 278.825L414.512 290.464Z" fill="#F8F8F9"/>
<path d="M584.688 291.122C590.277 300.254 592.481 309.898 591.3 320.053C589.394 336.315 578.969 347.819 562.268 346.166C555.307 345.48 549.341 342.303 544.37 336.635C537.814 329.145 535.042 321.447 536.054 313.541C539.045 309.875 540.159 305.866 539.394 301.514C539.351 301.266 539.223 301.042 539.032 300.878C538.841 300.715 538.599 300.624 538.348 300.62L531.229 300.502C531.42 300.355 531.42 300.052 531.229 299.591C531.061 299.175 531.162 298.843 531.533 298.595L532.039 298.241C534.918 298.072 537.358 297.386 539.36 296.183C547.266 291.392 555.397 287.546 563.753 284.645C568.398 283.036 572.165 282.66 575.055 283.514C578.845 284.639 582.056 287.175 584.688 291.122ZM563.567 288.862C556.617 290.38 548.739 294.412 543.122 298.798C542.683 299.146 542.537 299.596 542.683 300.147C544.826 308.278 550.46 315.987 559.738 315.144C562.133 314.919 563.91 313.862 565.069 311.973C568.746 305.933 569.786 299.219 568.189 291.831C568.084 291.332 567.88 290.86 567.59 290.44C567.3 290.021 566.93 289.663 566.5 289.387C566.071 289.111 565.591 288.923 565.087 288.833C564.584 288.742 564.067 288.752 563.567 288.862ZM580.268 316.19C580.173 316.011 580.03 315.863 579.854 315.761C579.679 315.66 579.479 315.61 579.277 315.617C579.074 315.624 578.878 315.688 578.71 315.801C578.543 315.914 578.41 316.072 578.328 316.257C575.663 322.431 570.281 329.28 563.264 330.579C555.555 332.013 547.828 325.822 543.274 320.053C542.07 318.512 541.362 318.715 541.148 320.66C540.136 329.888 550.612 339.57 558.051 341.747C574.87 346.672 589.377 333.413 580.268 316.19Z" fill="#0A0708"/>
<path d="M543.122 298.798C548.739 294.412 556.617 290.38 563.567 288.862C564.067 288.752 564.584 288.742 565.087 288.833C565.591 288.923 566.071 289.111 566.501 289.387C566.93 289.663 567.301 290.021 567.59 290.44C567.88 290.86 568.084 291.332 568.19 291.831C569.787 299.219 568.746 305.933 565.069 311.973C563.91 313.862 562.134 314.919 559.738 315.144C550.46 315.987 544.826 308.278 542.683 300.147C542.537 299.596 542.683 299.146 543.122 298.798Z" fill="#F8F8F9"/>
<path d="M531.229 300.502L538.348 300.62C538.599 300.624 538.841 300.715 539.032 300.878C539.223 301.042 539.351 301.266 539.394 301.514C540.159 305.866 539.045 309.875 536.054 313.541C534.142 313.811 532.815 312.765 532.073 310.404C531.522 308.649 531.24 305.349 531.229 300.502Z" fill="#F8F8F9"/>
<path d="M374.751 301.986C376.562 304.393 378.265 306.681 379.862 308.852C389.798 322.347 401.185 320.171 414.09 311.601C416.508 309.982 417.171 310.522 416.08 313.221C412.993 320.896 404.002 329.921 394.707 329.145C379.474 327.863 368.746 318.923 373.553 302.205C373.587 302.082 373.654 301.971 373.748 301.885C373.842 301.799 373.958 301.741 374.083 301.718C374.208 301.695 374.337 301.708 374.456 301.755C374.574 301.803 374.676 301.883 374.751 301.986Z" fill="#D62630"/>
<path d="M580.268 316.19C589.377 333.413 574.87 346.672 558.051 341.746C550.612 339.57 540.136 329.887 541.148 320.66C541.362 318.714 542.07 318.512 543.274 320.053C547.828 325.822 555.555 332.013 563.264 330.579C570.281 329.28 575.663 322.431 578.328 316.257C578.41 316.072 578.543 315.914 578.71 315.801C578.878 315.688 579.074 315.624 579.277 315.617C579.479 315.61 579.679 315.66 579.854 315.761C580.03 315.863 580.173 316.011 580.268 316.19Z" fill="#D62630"/>
<path d="M474.971 334.071C477.422 334.532 479.469 333.885 481.111 332.131C481.246 331.988 481.344 331.814 481.396 331.625C481.448 331.435 481.452 331.236 481.409 331.044C481.365 330.852 481.276 330.674 481.147 330.526C481.019 330.377 480.856 330.262 480.672 330.191C476.32 328.538 473.458 329.05 472.086 331.726C471.153 331.917 470.427 331.85 469.91 331.524C469.657 331.365 469.442 331.152 469.28 330.901C469.118 330.65 469.014 330.366 468.973 330.07C468.933 329.774 468.958 329.473 469.047 329.188C469.136 328.903 469.287 328.641 469.488 328.42C471.67 326.024 474.099 324.939 476.776 325.164C479.969 325.434 483.608 326.576 487.69 328.589C490.49 329.972 493.29 330.697 496.209 331.794C496.917 332.052 497.255 332.632 497.221 333.531C497.217 333.702 497.176 333.87 497.1 334.022C497.024 334.175 496.915 334.31 496.782 334.416C496.648 334.522 496.493 334.598 496.327 334.637C496.161 334.677 495.988 334.679 495.821 334.645C493.493 334.15 491.317 333.627 489.292 333.076C488.325 332.806 487.386 332.924 486.475 333.43C486.003 333.689 485.497 333.801 484.957 333.767C483.9 333.689 483.124 334.049 482.629 334.847C482.371 335.274 481.994 335.516 481.499 335.572C480.779 335.662 480.099 335.904 479.458 336.298C479.015 336.564 478.532 336.753 478.034 336.852C477.537 336.951 477.036 336.96 476.56 336.877C476.083 336.793 475.641 336.621 475.259 336.368C474.876 336.115 474.56 335.788 474.33 335.404C474.262 335.302 474.476 334.858 474.971 334.071Z" fill="#F7F2CD"/>
<path d="M474.971 334.071C473.733 333.61 472.772 332.828 472.086 331.726C473.458 329.05 476.32 328.538 480.672 330.191C480.856 330.262 481.019 330.377 481.147 330.526C481.276 330.674 481.365 330.853 481.409 331.044C481.452 331.236 481.448 331.435 481.396 331.625C481.344 331.814 481.246 331.988 481.111 332.131C479.469 333.886 477.422 334.532 474.971 334.071Z" fill="#0A0708"/>
<path d="M334.181 365.464C334.265 365.551 334.374 365.61 334.493 365.633C334.612 365.656 334.735 365.642 334.847 365.593C334.96 365.544 335.056 365.462 335.123 365.358C335.191 365.254 335.227 365.133 335.227 365.009C335.125 356.698 337.369 349.287 341.957 342.776C344.049 339.807 346.512 338.339 350.223 338.103C358.118 337.608 363.87 340.971 367.48 348.191C374.116 361.495 376.207 375.367 373.756 389.807C372.221 398.933 367.126 410.573 356.87 412.259C356.307 412.349 355.801 412.231 355.351 411.905C352.889 410.095 350.797 407.8 349.076 405.023C342.891 394.969 338.516 386.247 335.952 378.859C334.614 374.979 333.81 370.357 333.54 364.992C333.528 364.891 333.562 364.874 333.641 364.942L334.181 365.464Z" fill="#D62630"/>
<path d="M616.283 354.213C614.608 357.722 612.533 360.601 610.059 362.85C609.001 363.817 606.173 365.853 601.573 368.956C594.488 373.747 586.644 377.284 578.041 379.567C577.843 379.622 577.634 379.617 577.441 379.554C577.249 379.491 577.082 379.372 576.961 379.213C576.759 378.954 576.646 378.555 576.624 378.015C578.491 369.367 581.786 362.434 586.509 357.216C595.787 346.959 605.712 345.958 616.283 354.213Z" fill="#E1482D"/>
<path d="M456.836 361.112C462.471 358.852 468.257 356.603 474.195 354.365C475.135 354.011 476.149 353.892 477.148 354.018C478.147 354.145 479.102 354.513 479.93 355.09C483.192 357.362 486.61 359.83 490.187 362.496C493.043 364.632 497.215 366.786 502.704 368.956C509.046 371.47 519.741 368.552 523.908 363.221C525.1 361.691 525.719 361.894 525.764 363.828C525.916 369.412 515.71 371.234 511.594 371.656C511.023 371.711 510.476 371.915 510.006 372.246C509.536 372.577 509.159 373.024 508.911 373.545C507.241 377.003 505.504 380.849 504.542 384.56C501.354 397.077 488.533 412.31 478.159 419.243C471.664 423.596 463.314 416.038 459.063 411.349C448.756 399.996 444.707 387.799 441.806 372.904C441.401 370.761 440.49 369.513 438.247 368.771C434.485 367.539 424.667 364.064 425.949 358.582C425.975 358.466 426.035 358.361 426.121 358.279C426.206 358.197 426.314 358.142 426.431 358.12C426.547 358.099 426.668 358.112 426.777 358.158C426.886 358.204 426.979 358.281 427.045 358.38C433.945 368.956 446.546 365.228 456.836 361.112ZM447.187 383.734C449.065 393.428 453.108 401.767 459.316 408.751C462.859 412.749 466.469 416.696 471.715 417.86C481.87 420.121 498.554 395.492 500.274 387.091C500.353 386.706 500.306 386.305 500.138 385.95C499.971 385.594 499.693 385.302 499.347 385.117L478.041 373.511L477.585 373.477C477.399 373.462 477.221 373.393 477.074 373.279C476.927 373.165 476.818 373.011 476.759 372.836C476.489 372.072 476.832 371.554 477.788 371.284C478.171 371.175 478.585 371.193 478.969 371.335C486.492 374.248 493.324 378.195 499.465 383.177C499.903 383.548 500.286 383.492 500.612 383.008C501.422 381.76 501.579 380.411 501.084 378.96C500.904 378.42 500.55 378.06 500.021 377.88C497.918 377.183 495.883 376.334 493.915 375.333C493.859 375.299 493.819 375.254 493.797 375.198C493.729 375.041 493.673 374.883 493.628 374.726C493.515 374.366 493.313 374.079 493.021 373.865C488.039 370.177 482.894 366.735 477.585 363.541C476.421 362.85 474.869 362.647 473.554 362.782C465.119 363.615 457.213 365.178 449.836 367.472C447.35 368.248 446.023 369.603 445.855 371.537C445.72 373.191 445.658 374.911 445.669 376.699C445.68 379.207 446.186 381.552 447.187 383.734Z" fill="#1F131F"/>
<path d="M616.283 354.213C619.803 357.733 621.119 361.264 620.231 364.807C617.678 374.849 614.996 383.115 612.184 389.604C609.198 396.487 603.429 403.572 598.166 409.071C594.387 413.035 584.569 419.26 579.913 413.373C577.99 410.944 576.832 408.391 576.438 405.714C575.1 396.346 575.162 387.113 576.624 378.015C576.646 378.555 576.759 378.954 576.961 379.213C577.082 379.372 577.249 379.491 577.441 379.554C577.634 379.617 577.843 379.622 578.041 379.567C586.644 377.284 594.488 373.747 601.573 368.956C606.173 365.852 609.001 363.817 610.059 362.85C612.533 360.601 614.608 357.722 616.283 354.213Z" fill="#D62630"/>
<path d="M478.041 373.511C467.29 375.4 457.005 378.808 447.187 383.734C446.186 381.552 445.68 379.207 445.669 376.699C445.658 374.911 445.72 373.191 445.855 371.537C446.023 369.603 447.35 368.248 449.836 367.472C457.213 365.178 465.119 363.614 473.554 362.782C474.869 362.647 476.421 362.85 477.585 363.541C482.894 366.735 488.039 370.177 493.021 373.865C493.313 374.079 493.516 374.366 493.628 374.726C493.673 374.883 493.729 375.041 493.797 375.198C493.819 375.254 493.859 375.299 493.915 375.333C495.883 376.334 497.918 377.183 500.021 377.88C500.55 378.06 500.904 378.42 501.084 378.96C501.579 380.411 501.422 381.76 500.612 383.008C500.286 383.492 499.903 383.548 499.465 383.177C493.324 378.195 486.492 374.248 478.969 371.335C478.585 371.193 478.171 371.175 477.788 371.284C476.832 371.554 476.489 372.072 476.759 372.836C476.818 373.011 476.927 373.165 477.074 373.279C477.221 373.393 477.399 373.462 477.585 373.477L478.041 373.511Z" fill="#D62630"/>
<path d="M478.041 373.511L499.346 385.117C499.693 385.302 499.971 385.594 500.138 385.95C500.305 386.306 500.353 386.706 500.274 387.091C498.554 395.492 481.87 420.121 471.715 417.86C466.468 416.696 462.858 412.749 459.316 408.751C453.108 401.767 449.065 393.428 447.187 383.734C457.005 378.808 467.289 375.401 478.041 373.511Z" fill="#D7817D"/>
<path d="M257.544 386.281C253.586 381.468 250.285 379.556 247.642 380.546C247.204 376.441 248.722 375.148 252.197 376.666C255.492 378.105 257.274 381.31 257.544 386.281Z" fill="#F7F2CD"/>
<path d="M257.544 386.281L258.776 390.06C259.023 390.78 259.31 390.796 259.636 390.11C259.929 389.526 260.047 388.665 259.99 387.529C259.642 389.835 259.917 391.814 260.817 393.467C260.928 393.663 261.079 393.832 261.26 393.963C261.44 394.094 261.646 394.184 261.863 394.226L275.51 397.162C276.027 397.274 276.533 397.432 277.028 397.634C277.77 397.926 278.541 398.112 279.339 398.191C298.491 400.001 316.564 402.729 333.557 406.372C335.761 406.845 338.139 407.677 340.692 408.869C342.357 409.645 343.408 409.246 343.847 407.671L355.453 418.754C358.962 425.108 361.419 429.073 362.825 430.647C369.64 438.238 379.126 445.846 391.283 453.471C411.402 466.078 431.994 478.606 453.058 491.055C456.859 493.305 460.784 495.498 464.832 497.634C465.3 497.884 465.819 498.017 466.346 498.019C466.872 498.022 467.39 497.896 467.852 497.651C494.471 483.684 521.428 470.846 549.718 460.033C560.12 456.063 567.678 452.633 572.39 449.743C581.184 444.345 589.006 438.114 595.855 431.052C599.499 427.273 601.422 423.23 601.624 418.923L604.863 415.836C605.707 416.533 607.084 416.809 608.996 416.662C611.38 416.471 612.741 416.381 613.078 416.393C639.327 416.595 664.529 421.802 688.686 432.013C689.046 432.16 689.338 432.081 689.563 431.777C689.788 431.462 689.777 431.091 689.529 430.664C695.18 429.129 706.668 436.011 711.341 439.149C711.459 439.227 711.56 439.328 711.637 439.446C711.715 439.564 711.767 439.697 711.791 439.836C711.814 439.975 711.809 440.118 711.775 440.255C711.741 440.392 711.68 440.521 711.594 440.633C711.358 440.937 710.942 441.179 710.346 441.359C704.087 443.265 699.178 443.468 694.151 449.001C693.713 449.484 693.769 449.9 694.32 450.249L700.46 454.095C701.866 454.972 701.759 455.591 700.14 455.951C696.181 456.85 692.02 458.076 687.657 459.628C686.791 459.943 685.88 459.847 684.924 459.341C685.126 458.745 685.121 458.267 684.907 457.907C684.705 457.593 684.328 457.452 683.777 457.486C682.686 457.564 681.64 457.84 680.639 458.312C671.71 462.518 663.365 465.937 655.605 468.569C649.949 470.481 644.241 472.325 638.483 474.102C632.455 475.969 626.714 477.543 621.26 478.825C607.039 482.165 596.428 484.847 584.316 484.392C583.686 484.371 583.06 484.486 582.481 484.727C581.901 484.969 581.382 485.332 580.959 485.792C573.031 494.463 565.305 505.209 563.567 516.899C561.712 529.483 559.344 540.482 556.465 549.895C556.061 551.222 555.999 552.611 556.28 554.062C556.298 554.168 556.345 554.267 556.416 554.348C556.487 554.429 556.578 554.49 556.681 554.523C556.783 554.556 556.893 554.56 556.998 554.535C557.102 554.51 557.198 554.457 557.275 554.382C563.854 547.792 572.587 543.546 583.473 541.646C583.836 541.58 584.17 541.416 584.434 541.174L587.623 538.289L588.821 566.056L584.485 564.335C583.957 564.132 583.462 564.189 583.001 564.504L578.564 567.574C577.451 568.35 577.378 569.221 578.345 570.188C585.852 577.645 593.055 584.932 598.824 594.176C608.889 610.326 615.502 627.358 618.662 645.273C619.64 650.829 619.472 656.53 618.156 662.378C614.186 665.01 610.34 667.591 606.617 670.121C602.468 672.933 598.998 674.771 596.209 675.637C586.054 678.792 573.233 678.573 563.534 675.857C546.698 671.15 530.504 662.412 514.411 655.614C498.194 648.765 480.11 645.071 460.16 644.531C444.303 644.115 427.72 647.151 410.413 653.64C395.264 659.308 380.554 666.798 365.068 672.415C351.877 677.206 330.588 678.91 318.746 669.295C313.078 664.695 308.624 661.501 305.385 659.713C303.62 650.109 304.3 639.948 307.426 629.23C311.655 614.768 318.352 601.239 327.518 588.643C329.868 585.416 333.349 581.57 337.96 577.105C341.704 573.484 345.348 569.767 348.891 565.954C349.622 565.167 349.948 564.487 349.869 563.913C349.781 563.341 349.509 562.813 349.095 562.411C348.681 562.008 348.147 561.754 347.575 561.686C343.324 561.163 338.634 560.101 334.434 562.007L344.437 515.06L347.575 519.632C347.719 519.842 347.916 520.016 348.149 520.138L351.354 521.808C351.893 522.078 352.208 522.516 352.298 523.124C352.568 524.979 353.17 526.756 354.103 528.454C354.868 529.871 355.464 531.339 355.891 532.857C357.859 539.807 359.844 546.662 361.846 553.42C362.116 554.343 362.729 554.781 363.685 554.736C364.247 554.714 364.523 554.421 364.512 553.859C364.332 541.702 363.741 533.363 362.74 528.842C359.029 512.063 356.195 495.256 354.238 478.42C354.179 477.93 353.966 477.472 353.629 477.111C353.293 476.75 352.85 476.506 352.366 476.413C350.746 476.121 348.958 475.637 347.001 474.962C320.596 465.932 295.011 454.989 270.247 442.135C265.231 439.526 258.067 434.296 248.756 426.447C248.463 426.199 248.126 426.12 247.743 426.21L247.001 426.396C246.45 426.542 246.135 426.334 246.056 425.772L245.837 424.355C246.186 422.882 245.753 421.869 244.538 421.318C237.678 418.214 232.061 416.527 227.686 416.258C224.177 416.044 221.236 415.605 218.863 414.942C217.131 414.469 217.025 413.755 218.543 412.799L235.884 401.953L243.897 391.359C244.223 390.92 244.651 390.622 245.179 390.465C248.969 389.306 250.173 387.878 248.789 386.18L247.642 380.546C250.285 379.556 253.586 381.468 257.544 386.281Z" fill="#FACE1E"/>
<path d="M343.847 407.671C343.408 409.246 342.357 409.645 340.692 408.869C338.139 407.677 335.761 406.845 333.557 406.372C316.564 402.729 298.491 400.001 279.339 398.191C278.541 398.112 277.77 397.927 277.028 397.634C276.533 397.432 276.027 397.274 275.51 397.162L261.863 394.227C261.646 394.184 261.44 394.094 261.26 393.963C261.079 393.832 260.928 393.663 260.817 393.467C259.917 391.814 259.642 389.835 259.99 387.53C259.923 385.786 260.682 384.949 262.268 385.016C269.263 385.308 276.859 386.433 285.058 388.39C298.092 391.516 311.014 395.047 323.823 398.984C330.807 401.132 337.481 404.028 343.847 407.671Z" fill="#F7F2CD"/>
<path d="M248.789 386.18C250.172 387.878 248.969 389.306 245.179 390.465C244.651 390.622 244.223 390.92 243.897 391.359L235.884 401.952C230.002 398.5 224.548 395.885 219.521 394.108C219.15 393.985 218.835 393.799 218.576 393.552C218.127 393.147 217.857 392.877 217.767 392.742C217.193 391.876 217.407 391.314 218.408 391.055C228.574 388.423 238.701 386.798 248.789 386.18Z" fill="#F7F2CD"/>
<path d="M572.272 385.977C572.317 393.523 572.401 398.286 572.525 400.265C573.143 410.218 577.721 417.607 586.256 422.432C586.808 422.746 586.836 423.101 586.341 423.494C573.993 433.132 560.666 440.526 546.361 445.677C546.073 445.776 545.822 445.962 545.641 446.209C545.461 446.456 545.359 446.753 545.349 447.06L545.332 447.617C545.321 447.898 545.456 448.005 545.737 447.938C559.991 444.513 573.115 436.855 585.565 428.437C587.286 427.267 589.99 425.755 593.679 423.899C596.355 422.55 599.004 420.891 601.624 418.923C601.422 423.23 599.499 427.273 595.855 431.052C589.006 438.114 581.185 444.344 572.39 449.743C567.678 452.633 560.121 456.063 549.718 460.033C521.428 470.846 494.471 483.683 467.852 497.651C467.39 497.896 466.873 498.022 466.346 498.019C465.819 498.016 465.3 497.884 464.832 497.634C460.784 495.497 456.859 493.304 453.058 491.055C431.994 478.606 411.402 466.078 391.283 453.471C379.126 445.846 369.64 438.238 362.825 430.647C361.419 429.072 358.962 425.108 355.453 418.754C364.506 426.728 374.105 433.745 384.249 439.807C385.384 440.493 386.605 440.903 387.909 441.038C388.494 441.106 388.556 440.959 388.095 440.6L358.253 417.421C356.656 416.184 356.842 415.318 358.81 414.824C365.209 413.227 370.27 409.156 373.992 402.61C389.242 412.293 402.225 419.204 412.943 423.342C428.305 429.292 441.963 433.756 453.918 436.737C461.678 438.676 471.175 439.419 479.593 438.676C512.341 435.809 540.952 423.252 565.423 401.008C566.3 400.209 567.245 399.085 568.257 397.634C568.977 396.599 569.494 395.272 569.809 393.653C570.304 390.987 571.125 388.429 572.272 385.977Z" fill="#D18C2C"/>
<path d="M212.571 555.04C211.424 555.366 210.912 556.468 211.036 558.346C211.081 558.965 211.413 559.257 212.031 559.223C226.089 558.549 240.22 557.688 254.424 556.643C259.012 556.316 265.355 555.698 273.452 554.787C279.66 554.09 285.991 553.477 292.447 552.948L258.354 589.335C257.972 589.751 257.803 590.24 257.848 590.803L258.169 594.682L170.803 604.5C170.252 604.568 169.965 604.32 169.943 603.758C168.875 572.741 168.442 541.854 168.644 511.096C168.649 510.381 168.824 509.676 169.155 509.04C169.487 508.403 169.965 507.853 170.55 507.435L176.556 503.083C176.702 502.982 176.769 502.92 176.758 502.897L176.539 502.509C176.336 502.127 176.038 502.026 175.645 502.206C148.603 514.099 120.904 529.989 91.046 542.219C90.4724 542.456 89.9832 542.337 89.5783 541.865L10.0572 449.152C9.61862 448.646 9.71983 448.298 10.3609 448.106C70.4037 430.214 130.334 413.553 190.152 398.123C196.113 396.583 202.602 395.137 209.619 393.788C210.811 393.563 211.683 393.99 212.234 395.07L214.106 398.697C214.376 399.225 214.477 399.782 214.41 400.367C213.589 407.688 213.465 412.794 214.039 415.684C215.298 422.004 215.878 427.83 215.776 433.16C215.023 473.849 213.955 514.475 212.571 555.04Z" fill="#FACE1E"/>
<path d="M689.529 430.664C689.777 431.091 689.788 431.462 689.563 431.777C689.338 432.081 689.046 432.16 688.686 432.013C664.529 421.802 639.327 416.595 613.078 416.392C612.741 416.381 611.38 416.471 608.996 416.662C607.084 416.809 605.706 416.533 604.863 415.836C606.168 414.273 607.54 413.019 608.979 412.074C612.235 409.948 620.484 410.657 623.368 410.927C641.452 412.625 658.856 415.976 675.578 420.981C679.307 422.094 682.259 421.504 685.852 420.897C687.392 420.638 688.18 421.29 688.213 422.853C688.258 425.249 688.438 427.56 688.753 429.787C688.809 430.169 689.068 430.461 689.529 430.664Z" fill="#F7F2CD"/>
<path d="M591.518 420.591C593.157 419.648 594.2 418.386 593.847 417.772C593.494 417.159 591.879 417.425 590.24 418.368C588.6 419.311 587.557 420.573 587.91 421.187C588.263 421.8 589.878 421.534 591.518 420.591Z" fill="#D18C2C"/>
<path d="M229.474 426.008C228.541 425.974 227.815 425.682 227.298 425.131L227.483 421.841C227.491 421.71 227.53 421.583 227.595 421.469C227.661 421.355 227.753 421.259 227.862 421.187C227.972 421.114 228.097 421.069 228.228 421.054C228.358 421.039 228.49 421.054 228.614 421.099C231.999 422.291 234.895 423.112 237.301 423.562C239.832 424.034 239.82 424.462 237.268 424.844L229.474 426.008Z" fill="#D18C2C"/>
<path d="M245.837 424.355L246.056 425.772C246.135 426.334 246.45 426.542 247.001 426.396L247.743 426.21C248.126 426.12 248.463 426.199 248.755 426.446C258.067 434.296 265.231 439.526 270.247 442.135C295.011 454.989 320.595 465.931 347.001 474.962C348.958 475.637 350.746 476.12 352.366 476.413C352.85 476.506 353.293 476.75 353.629 477.111C353.966 477.472 354.179 477.93 354.238 478.42C356.195 495.256 359.029 512.063 362.74 528.842C363.741 533.363 364.332 541.702 364.511 553.859C364.523 554.421 364.247 554.714 363.685 554.736C362.729 554.781 362.116 554.343 361.846 553.42C359.844 546.661 357.859 539.807 355.891 532.857C355.464 531.339 354.868 529.871 354.103 528.454C353.17 526.756 352.568 524.979 352.298 523.123C352.208 522.516 351.893 522.078 351.354 521.808L348.148 520.138C347.916 520.015 347.719 519.842 347.575 519.632L344.437 515.06C344.606 512.237 345.275 509.527 346.445 506.929C346.571 506.654 346.584 506.34 346.479 506.055C346.375 505.771 346.162 505.539 345.888 505.411C334.788 500.35 323.081 495.391 313.111 489.081C289.866 474.388 268.037 455.917 250.78 434.375C248.834 431.946 246.714 429.663 244.42 427.526C243.981 427.132 243.903 426.677 244.184 426.16C244.499 425.564 245.05 424.962 245.837 424.355Z" fill="#D18C2C"/>
<path d="M684.924 459.341C684.103 459.015 683.546 459.027 683.254 459.375C679.037 464.571 673.723 469.806 667.313 475.08C644.179 494.097 618.538 505.72 590.389 509.949C587.353 510.41 584.637 511.22 582.242 512.378C579.576 513.671 576.905 514.712 574.229 515.499C573.925 515.589 573.931 515.634 574.246 515.634C576.978 515.724 580.178 515.308 583.844 514.385C584.109 514.319 584.386 514.307 584.655 514.352C584.925 514.397 585.183 514.497 585.412 514.646C585.642 514.794 585.838 514.989 585.989 515.217C586.14 515.445 586.243 515.702 586.29 515.971C587.572 523.292 588.016 530.732 587.623 538.289L584.435 541.174C584.17 541.416 583.836 541.58 583.473 541.646C572.587 543.546 563.854 547.792 557.275 554.382C557.198 554.458 557.102 554.511 556.998 554.535C556.893 554.56 556.783 554.556 556.681 554.523C556.578 554.49 556.487 554.429 556.416 554.348C556.345 554.267 556.298 554.168 556.28 554.062C555.999 552.611 556.061 551.222 556.466 549.895C559.345 540.482 561.712 529.483 563.567 516.899C565.305 505.209 573.031 494.463 580.959 485.792C581.382 485.332 581.901 484.969 582.481 484.727C583.06 484.486 583.686 484.371 584.316 484.392C596.428 484.848 607.039 482.165 621.26 478.825C626.714 477.543 632.455 475.969 638.483 474.102C644.241 472.325 649.949 470.481 655.605 468.569C663.365 465.937 671.71 462.518 680.639 458.312C681.64 457.84 682.686 457.565 683.777 457.486C684.328 457.452 684.705 457.593 684.907 457.908C685.121 458.267 685.126 458.745 684.924 459.341Z" fill="#D18C2C"/>
<path d="M301.505 550.705L292.447 552.948C285.991 553.477 279.66 554.09 273.452 554.787C265.355 555.698 259.012 556.316 254.424 556.642C240.22 557.688 226.089 558.549 212.031 559.223C211.413 559.257 211.081 558.965 211.036 558.346C210.912 556.468 211.424 555.366 212.571 555.04C232.747 553.364 261.261 551.402 298.115 549.153C300.319 549.018 301.449 549.535 301.505 550.705Z" fill="#F7F2CD"/>
<path d="M301.505 550.705C301.067 564.852 300.274 578.938 299.127 592.962C298.857 596.302 298.25 601.379 297.254 604.804C292.497 621.426 289.911 638.317 289.495 655.479C289.483 655.749 289.343 655.889 289.073 655.9L258.438 656.373C257.674 656.384 257.325 656.007 257.393 655.243C258.989 637.103 260.48 618.884 261.863 600.587C261.987 598.855 261.897 597.145 261.593 595.458C261.492 594.885 261.154 594.57 260.581 594.514C259.726 594.424 258.922 594.48 258.169 594.682L257.848 590.803C257.803 590.24 257.972 589.751 258.354 589.335L292.447 552.948L301.505 550.705Z" fill="#D18C2C"/>
<path d="M305.385 659.713C306.172 671.285 308.945 681.08 313.702 689.099C313.702 692.327 312.678 693.749 310.631 693.367C299.239 675.204 295.314 655.366 298.857 633.852C301.14 620.042 305.723 607.019 312.605 594.784C319.027 583.358 324.374 575.215 328.648 570.357C331.808 566.77 333.737 563.986 334.434 562.007C338.634 560.101 343.324 561.163 347.575 561.686C348.147 561.754 348.681 562.008 349.095 562.411C349.509 562.813 349.781 563.341 349.869 563.913C349.948 564.487 349.622 565.167 348.891 565.954C345.348 569.767 341.704 573.484 337.959 577.105C333.349 581.569 329.868 585.416 327.517 588.643C318.352 601.239 311.655 614.768 307.426 629.23C304.3 639.948 303.62 650.109 305.385 659.713Z" fill="#F7F2CD"/>
<path d="M588.821 566.056C594.134 572.77 600.072 579.804 604.357 586.703C616.3 605.946 623.183 626.172 625.005 647.382C625.736 655.94 624.353 665.713 620.855 676.7L617.549 675.874C616.964 675.739 616.677 675.368 616.688 674.76L616.823 669.008L618.156 662.378C619.472 656.53 619.641 650.829 618.662 645.273C615.502 627.358 608.889 610.326 598.824 594.176C593.055 584.932 585.852 577.645 578.345 570.188C577.378 569.221 577.451 568.35 578.564 567.574L583.001 564.504C583.462 564.189 583.957 564.133 584.485 564.335L588.821 566.056Z" fill="#F7F2CD"/>
<path d="M618.156 662.378L616.823 669.008C612.628 686.529 602.299 699.041 585.835 706.542C579.019 709.646 571.53 710.72 563.365 709.764C553.39 708.583 544.387 705.884 536.357 701.667C531.499 699.102 522.019 695.397 507.916 690.55C497.288 686.884 487.611 684.488 478.884 683.364C465.198 681.587 450.876 681.699 435.919 683.701C424.627 685.208 414.512 687.232 405.571 689.774C395.517 692.642 384.35 697.033 372.069 702.949C357.41 710.017 340.625 709.055 326.084 702.173C323.216 700.812 319.089 696.454 313.702 689.099C308.945 681.081 306.172 671.285 305.385 659.713C308.624 661.501 313.078 664.695 318.746 669.295C330.588 678.91 351.877 677.206 365.068 672.416C380.554 666.798 395.264 659.308 410.412 653.64C427.72 647.151 444.303 644.115 460.16 644.531C480.11 645.071 498.194 648.765 514.411 655.614C530.504 662.412 546.698 671.15 563.534 675.857C573.233 678.573 586.054 678.792 596.209 675.637C598.998 674.772 602.468 672.933 606.617 670.121C610.34 667.591 614.186 665.01 618.156 662.378Z" fill="#D18C2C"/>
<path d="M616.823 669.008L616.688 674.76C616.677 675.367 616.964 675.739 617.549 675.874L620.855 676.7C612.713 694.818 599.189 707.655 580.285 715.212C579.374 715.584 577.4 715.679 574.364 715.499C568.752 716.196 565.232 716.556 563.803 716.579C559.867 716.658 555.015 715.904 549.245 714.318C531.589 705.04 513.786 698.085 495.838 693.451C480.116 689.391 463.556 688.256 446.158 690.044C419.696 692.743 395.005 699.35 372.086 709.865C366.744 711.541 361.492 712.305 356.33 712.159C346.849 711.9 336.835 710.68 326.286 708.498C320.719 705.068 315.501 700.025 310.631 693.367C312.678 693.749 313.702 692.327 313.702 689.099C319.088 696.454 323.216 700.812 326.084 702.172C340.625 709.055 357.41 710.017 372.069 702.949C384.35 697.033 395.517 692.641 405.571 689.774C414.512 687.232 424.627 685.208 435.919 683.701C450.876 681.699 465.198 681.587 478.884 683.363C487.611 684.488 497.288 686.884 507.916 690.55C522.019 695.397 531.499 699.102 536.357 701.666C544.387 705.884 553.39 708.583 563.365 709.764C571.53 710.72 579.019 709.646 585.835 706.542C602.299 699.041 612.628 686.529 616.823 669.008Z" fill="#E1C58A"/>
<path d="M634.266 742.321C634.288 742.816 633.878 743.041 633.034 742.996C630.257 740.286 628.148 737.339 626.708 734.156C624.099 728.027 619.32 721.803 612.37 715.482C612.131 715.263 611.831 715.122 611.509 715.076C611.187 715.031 610.858 715.085 610.565 715.229L610.025 715.482C609.942 715.524 609.869 715.584 609.813 715.658C609.756 715.732 609.717 715.818 609.7 715.909C609.682 716 609.685 716.094 609.709 716.184C609.733 716.274 609.778 716.357 609.839 716.427L626.084 734.73C626.197 735.54 625.955 736.17 625.359 736.619C625.135 736.79 624.88 736.914 624.607 736.983C624.335 737.053 624.051 737.067 623.773 737.024C622.39 736.822 621.069 737.007 619.809 737.581C618.819 738.02 618.842 738.391 619.876 738.694C623.408 739.763 625.308 742.349 625.578 746.454L625.426 748.208C625.381 748.748 625.095 749.069 624.566 749.17L623.149 749.474C619.089 747.438 615.749 745.459 613.129 743.536C611.155 742.085 609.3 742.962 608.136 742.119C607.798 741.883 607.573 741.556 607.461 741.14C607.303 740.488 606.994 739.92 606.533 739.436C605.588 738.413 604.025 737.924 601.843 737.969C600.932 737.991 600.792 738.329 601.422 738.981C603.997 741.635 606.37 744.525 608.54 747.652C609.463 748.979 609.547 750.295 608.793 751.599C608.467 752.161 608.001 752.308 607.393 752.038C591.221 744.818 575.005 735.512 558.743 724.119C554.582 721.207 551.416 717.94 549.245 714.318C555.015 715.904 559.867 716.658 563.803 716.579C565.232 716.556 568.752 716.196 574.364 715.499L574.583 716.663C574.673 717.158 574.965 717.456 575.46 717.557C588.348 719.953 599.161 714.521 609.232 707.115C609.772 706.722 610.312 706.727 610.851 707.132C618.87 713.272 625.483 721.083 630.69 730.563C632.939 734.634 634.131 738.554 634.266 742.321Z" fill="#FACE1E"/>
<path d="M326.286 708.498C336.835 710.68 346.85 711.9 356.33 712.159C361.492 712.305 366.744 711.541 372.086 709.865C369.207 716.028 365.282 720.864 360.311 724.372C346.467 734.179 331.071 741.14 314.123 745.256C312.65 745.616 312.234 745.11 312.875 743.738C314.382 740.555 316.058 737.418 317.902 734.325C318.195 733.83 318.054 733.583 317.48 733.583C314.905 733.572 312.465 734.387 310.159 736.029L300.324 742.827C298.424 743.345 296.686 743.367 295.112 742.895C294.985 742.858 294.867 742.795 294.767 742.709C294.667 742.622 294.587 742.515 294.532 742.395C294.478 742.275 294.45 742.144 294.451 742.011C294.452 741.879 294.482 741.749 294.538 741.629C297.192 735.793 300.156 730.738 303.428 726.464C303.563 726.273 303.586 726.071 303.496 725.857C303.417 725.711 303.299 725.581 303.142 725.469C303.074 725.435 303.012 725.435 302.956 725.469C299.324 727.741 295.916 730.322 292.733 733.212C291.434 734.376 290.017 734.966 288.449 735.54C287.898 735.742 287.678 735.551 287.791 734.966C289.967 723.411 301.421 712.901 311.458 707.942C311.827 707.762 312.23 707.666 312.638 707.66C313.047 707.654 313.45 707.739 313.82 707.908C318.324 709.949 321.9 714.555 327.163 714.369C327.443 714.361 327.71 714.255 327.92 714.07C328.129 713.885 328.267 713.633 328.31 713.357C328.468 712.288 327.793 710.669 326.286 708.498Z" fill="#FACE1E"/>
<path d="M626.708 734.156C626.214 734.201 626.006 734.393 626.084 734.73L609.839 716.427C609.778 716.357 609.733 716.274 609.709 716.184C609.685 716.095 609.682 716 609.7 715.909C609.718 715.818 609.756 715.732 609.813 715.658C609.869 715.584 609.942 715.524 610.025 715.482L610.565 715.229C610.858 715.085 611.187 715.031 611.509 715.076C611.832 715.122 612.131 715.263 612.37 715.482C619.32 721.803 624.099 728.027 626.708 734.156Z" fill="#1F131F"/>
<path d="M310.159 736.029L308.877 742.304C308.517 744.081 307.438 744.891 305.638 744.733C304.39 744.632 303.62 744.165 303.327 743.333C303.147 742.827 302.787 742.557 302.248 742.524C301.607 742.479 300.965 742.58 300.324 742.827L310.159 736.029Z" fill="#D62630"/>
<path d="M634.266 742.321C634.727 743.525 634.991 744.711 635.059 745.881C635.104 746.69 634.941 746.735 634.57 746.016L633.034 742.996C633.878 743.041 634.288 742.816 634.266 742.321Z" fill="#D18C2C"/>
<path d="M625.578 746.454C626.377 747.095 626.737 747.961 626.658 749.052C626.613 749.659 626.292 750.014 625.696 750.115C624.785 750.261 623.936 750.047 623.149 749.474L624.566 749.17C625.095 749.069 625.382 748.748 625.427 748.209L625.578 746.454Z" fill="#D18C2C"/>
</svg>
